<mxfile host="app.diagrams.net" modified="2021-04-16T13:43:44.575Z" agent="5.0 (Windows NT 10.0; WOW64) AppleWebKit/537.36 (KHTML, like Gecko) Chrome/80.0.3987.87 Safari/537.36 SE 2.X MetaSr 1.0" etag="2ks_ezI3B88oG8KPagxd" version="14.6.1" type="github">
  <diagram id="2N16Z9Sh7Igzl8UlPVsR" name="Page-1">
    <mxGraphModel dx="1422" dy="747" grid="1" gridSize="10" guides="1" tooltips="1" connect="1" arrows="1" fold="1" page="1" pageScale="1" pageWidth="827" pageHeight="1169" math="0" shadow="0">
      <root>
        <mxCell id="0" />
        <mxCell id="1" parent="0" />
        <mxCell id="qPU4i-IaGX8xfbsaANAp-1" value="" style="shape=image;verticalLabelPosition=bottom;labelBackgroundColor=#ffffff;verticalAlign=top;aspect=fixed;imageAspect=0;image=data:image/png,iVBORw0KGgoAAAANSUhEUgAAAjwAAAHKCAYAAAAHLJEDAAAgAElEQVR4Ae2dfcskR7n/fRtzDoT9J28g+IcIJoKwOyEhwcMRQRBMPC4IInPEJBIIJHpWEIOgbhzQrMoRRBDyAAHBW/EHIpEgghAwRG8ICQHDgmAiiBykflxVfVVXVVf39MNMd83MZ2C3q6vr4apPXVX1neqevt9n+EAAAhCAAAQgAIETJ/C+Utv36quvmm9/+9vmkUceMVevXjXXr183d911F/96MBBWwuzRRx81N2/eNMKSDwQgAAEIQOCcCRQpeJ566inz2GOPme9///vmT3/6k7l9+/Y599Gotguz119/3dy6dcsKH2HKBwIQgAAEIHCuBIoSPK+88oq55557zAsvvHCu/XGwdgvTu+++2whjPhCAAAQgAIFzI1CM4Hn55ZfNQw89ZN59991z64PZ2vvee++Zhx9+2AhrPhCAAAQgAIFzIlCE4JFdB1mI+cxDQIQlOz3zsKYWCEAAAhAog0ARgkduY7GzM59DCGthzgcCEIAABCBwLgQWFzzyMC3P7MzvbsKcB5nn506NEIAABCCwDIFFBY/8XFp+Os1nGQLySzh+sr4Me2qFAAQgAIF5CSwqeOQ9O/LTcz7LEHj22WfNM888s0zl1AoBCEAAAhCYkcCigkdeKijv2eGzDIHXXnvNvu9omdqpFQIQgAAEIDAfgUUFj7wNmJcKztfZaU3vvPOOWa/XaTTnEIAABCAAgZMjsKjgkT+BwGdZAvTBsvypHQIQgAAE5iGwqOCRv43FZ1kC9MGy/KkdAhCAAATmIYDg2RPni83KrLeX+dIuNma12piL/NVFYxE8i+KncghAAAIQmIkAgudya9arlVkN/hcKmEuzXa/MJqtouq7N1Msd1SB4OuBwCQIQgAAEToYAgifpyradmsvt2qzWW5Pfw7kwm9XaZDd4ZHfH55N0bcIoMWSmUwTPTKCpBgIQgAAEFiWA4EnwDxM8TsA0d4d090d2dxIhVNjtLQRP4gCcQgACEIDASRJA8CTdOkzwuMx290fvZ9lbZJXgEXGj8b4ed4urGe8TzBpA8MyKm8ogAAEIQGAhAgieBPwYwRPl8bewZPdnYzab9ueDGloosWWOUwTPHJSpAwIQgAAEliaA4El6IBIvwbX2Z3jih5I13dYLHb29FRRmjJF6StjlQfDE/cIZBCAAAQicJoEzFzzV7aXBv9Cqdm3sFo3bydEfaLUJplLdB8FTas9gFwQgAAEI7JPAmQueJso2waI7N41faUUPIYe/wmp7oDkUS836545B8MxNnPogAAEIQGAJAgiehPpgwSP5rehZmc0mfMGgCJ7kF1pVXdFDzkn9c58ieOYmTn0QgAAEILAEAQRPRD1+Hie81LrDo4mqFxjWb1tG8CgajhCAAAQgAIGlCSB4wh6Ibk+FF4zpFjz6U/ONfbGgexgZwRMT5AwCEIAABCCwHAEEj2fvnrmpd2j8BRtoFzwuX/2LK3e+uaji2x6ILuE36cYYbmnF/cwZBCAAAQicJgEEj/Rr9QxOm9iRJHnB43Z28vlE8PAMz2kOG1oFAQhAAALHRmBRwXP9+vXleVmxkxcmoXF5wROmOM5wEX1wnOiwGgIQgAAEjojAooLn6tWr5vbt20eE67RMfeedd8x6vT6tRtEaCEAAAhCAQIbAooLn0UcfNa+//nrGLKLmIPDaa6+ZL33pS3NURR0QgAAEIACBRQksKnhu3rxpbt26tSiAc678e9/7nvnOd75zzghoOwQgAAEInAmBRQXPq6++ah577LEzQV1eM2WHTfqADwQgAAEIQODUCSwqeATuU089ZV544YVT51xc+4S5sOcDAQhAAAIQOAcCiwsegXz33Xeb99577xx4F9FGYS3M+UAAAhCAAATOhUARgueVV14xDz300LkwX7ydDz/8sBHmfCAAAQhAAALnQqAIwSOwX375ZSML8bvvvnsu7Gdvp+zsiLAU1nwgAAEIQAAC50SgGMEj0GXX4Z577uGZngN4oDyzI7ex2Nk5AFyKhAAEIACB4gkUJXiUljxMK78gevbZZ428K0ZekMdnGAFhJuzkp+fCkgeUh/EjNQQgAAEInBaBIgWPIJafSz/zzDP2xXjyNmD5Ewjyhy5L+nfnnXcWZY+yEVbCTF4qKO/Z4afnpzVoaQ0EIAABCAwnUKzgGd6U+XOsVqv5K6VGCEAAAhCAAAQGE0DwDEZWZ0Dw1CwIQQACEIAABEomgOCZ0DsIngnwyAoBCEAAAhCYkQCCZwJsBM8EeGSFAAQgAAEIzEgAwTMBNoJnAjyyQgACEIAABGYkgOCZABvBMwEeWSEAAQhAAAIzEkDwTICN4JkAj6wQgAAEIACBGQkgeCbARvBMgEdWCEAAAhCAwIwEEDwTYCN4JsAjKwQgAAEIQGBGAgieCbARPBPgkRUCEIAABCAwIwEEzwTYCJ4J8MgKAQhAAAIQmJEAgmcCbATPBHhkhQAEIAABCMxIAMEzATaCZwI8skIAAhCAAARmJIDgmQAbwTMBHlkhAAEIQAACMxJA8EyAjeCZAI+sEIAABCAAgRkJIHgmwEbwTIBHVghAAAIQgMCMBBA8E2AjeCbAIysEIAABCEBgRgIIngmwETwT4JEVAhCAAAQgMCMBBM8E2AieCfDICgEIQAACEJiRAIJnAmwEzwR4ZIUABCAAAQjMSADBMwE2gmcCPLJCAAIQgAAEZiSA4JkAG8EzAR5ZIQABCEAAAjMSQPBMgI3gmQCPrBCAAAQgAIEZCSB4JsBG8EyAR1YIQAACEIDAjAQQPBNgI3gmwCMrBCAAAQhAYEYCCJ4JsBE8E+CRFQIQgAAEIDAjAQTPBNgIngnwyAoBCEAAAhCYkQCCZwJsBM8EeGSFAAQgAAEIzEgAwTMBNoJnAjyyQgACEIAABGYkgOCZABvBMwEeWSEAAQhAAAIzEkDwTICN4JkAj6wQgAAEIACBGQkgeCbARvBMgEdWCEAAAhCAwIwEEDwTYCN4JsAjKwQgAAEIQGBGAgiegbCvXbtmROik/ySeDwQgAAEIQAACZRJA8Azslxs3bpgrV65EgkfOJZ4PBCAAAQhAAAJlEkDwjOiXdHeHW1sjIJIFAhCAAAQgMCMBBM8I2OEuD7s7IwCSBQIQgAAEIDAzAQTPSODhLs/IIsgGAQhAAAIQgMBMBBA8I0HrLg/P7owESDYIQAACEIDAjATed/36dXPXXXfxbwSDO+64A24juKm/ie/xgQAEIAABCMxB4H2y+PCBwBIE8L0lqFMnBCAAgfMkgOA5z34votUIniK6ASMgAAEInAUBBM9ZdHOZjUTwlNkvWAUBCEDgFAkgeE6xV4+kTQieI+kozIQABCBwAgQQPCfQicfaBATPsfYcdkMAAhA4PgIInuPrs5OxGMFzMl1JQyAAAQgUTwDBU3wXna6BCJ7T7VtaBgEIQKA0Agie0nrkjOxB8JxRZ9NUCEAAAgsTQPAs3AHnXD2C55x7n7ZDAAIQmJcAgmde3tQWEEDwBDAIQgACEIDAQQkgeA6Kl8K7CCB4uuhwDQIQgAAE9kkAwbNPmpQ1iACCZxAuEkMAAhCAwAQC8wmey61ZrzbmYoKxe8l6sTGr9dZcRoVdmu16ZTaLGxcZdfInCJ6T72IaCAEIQKAYAuMEzxjx0shzYTarlVm1/FtvY0nSJCb512ZnsjRjQYLnYrMyu9uZNsCYy+3arFJ11uCb5Nt1PUken45kHRfSOEPwNJAQAQEIQAACByIwSvDIQt1YcHcZ2Fhw2xfRvkLA2rFj18ilaRdWbYJL4p0Ycbs/Xemy1xq7SE1A/dqZCsO12V40d8uyIiisssG/rV35Xbi4/La8Aece7UfwhB1EGAIQgAAEDklgt+CRHZGWXZid8ZsLtxuRyb+5CAVPGDYmFgI9FtdM+as2ITR4h8fVn26odHZKto5mjridzesuJmDjRYvatINNaLTPq/VoGXpuBLxp5WYuzFb6M0hug41yqx0oBE9KinMIQAACEFiQwG7Bkxhnd0x6LGZJNlkFk2d4goXchOG84AnX7kbZaURm4e4nLtKC5DwjDGyy2OYoZyp4rD3B7kdWoMXX6/bW9cgui94Ci3Zc0voCY2y6Rn1yKzDTrhZuqbBVG2w1jX5F8AT4CUIAAhCAQCEEBgoeWXybD/f2EhONhbFeyE2n4NkHqUtzaW8DrfwDy3khUImOSNDVwsCKvYZ4iIWKFQOpAEnPqybludX1uWTKSY8pD9cnqShp3HJsiJm0nl07PKL9RLQmz01l2mbZRgxTm905t7TyXIiFAAQgAIH9ExgkeNoWsvzCnRg7UvB0CpMd4sPukkQLci0abLn1NkptrKSP4jPCwKauy6ozV6GozkpINARAW7lpfFXPtvp1mZRdtXtz4dLKebjrkmubE2vh8zlpPbsETya9NDdtq9VFmYeqG5CMQfBkoBAFAQhAAAIHIdBf8FjB0tzdEau6BI9baONdELdAb4NfWcXioau8iIJd/MNFPLpqTy4vL+xPztNnU3KiQDI044OFPhAbKjriY2VLKgLSc1eRWSdCxVkf1GcjlI0clX+VZrs16822al/COBJtLq/a6i6l9XQLHsulEm22T6vyw3hnf46hXomPCJ6YB2cQgAAEIHA4Aj0Fj1scVTS0iRhdUO0x3dFoLPq6kOutklq4tAmeRrwVIHW+Lkxp3qawcbmb8RlhYJMG9qcVp21NzyuR6HlF4iStL6jHlxOmceGuHR5p03qzqZ6hcuJHd4eiqtt42vhAUAV92+SF4EndgXMIQAACEFieQC/BYxc1exslLy5SMZFtll00w+c/koU8+FVVvrxwka9qaFugswbEkbmFWlI069Z6nVDwIqXldpoVEGJXIArS2z6Op7Jw5dfptT61N+Bkn3WSPgjTVPlTe7ySkeu5n7KHZVR15XhWcVt59896YzZrET6x7aHYkpLa2GqL9MgOj5LgCAEIQAAChyawW/DoraxN+0+WmyKhabakWa3XwS+16oXcXgsEVba8xjNAegsm2HkIFv10ERaLZCFWHVAvyolgCIWKbUZGGNj42n7X2iBdh+BxbVXB4HLqL8HcDlpQTlqPZxCmceGwvXXbAvHh82qdqf3KMxa1Fxtnqy2zYuPDVgylbXGiMX4OSuuMjwiemAdnEIAABCBwOAI7BY8s0H7XItiFCU3KCpQwQbAj4RdLf10W3pVZr9cd74DRxThZXHM7Er7cJFAJN12IQ1GQpLSn9fVQXIQpU8EQnGcFT7U7ooorLKoKWzFUPZNTJ3N8dGfJCZvQpqbgceW4v5OhgqXxWoDURrEh5BmGddcmEoOuXuUZNme3P7jUCJ6QGmEIQAACEDgkgZ2Cx1eeLIA+3q6T8a+Ewms2nOwuhAuiXZxFSCXl14JDSqgW9VQUJXka9fqIpiiIy/cJfaC20eWtBYgmqQSO/txddpdUEIhdGpbk6bkWkT2m9QVCyqd3IsjZVLfNtqna5WrYG/VBnccXKYGQZ2KzLTtok+u3RIBWhdXsotIbJwieBhIiIAABCEDgQARmETzNBfDCbNZbcyHPhegvj8LFVncUdNUOFl+30O7edQp5pYu1XMvF1XlC0RGG6xTpu4PCKw2BE9gfpcuehGJGEqSCx113Oz55wZEtNhA8ThjFt65snjSN8k94RX3QqCy1v5HARyB4PAoCEIAABCBwYAKDBY99eDV4VkZvtWSPsmAmQsa3x8brz6ztiho83yPZql0juwgH6WwB4aKff4bH2mMX7FQwqAU7yvC7GU7wZNvXxcHn77HDU7XR1xHmTQSPFRsqRCqGPl9qj6aTJquYscc2oRQzibPLQ8tbc5npDyeggn4IMyruzBHBk4FCFAQgAAEIHITAYMHjngzpb4ss0I31L7No6m2revF2OxBe+PSvcs8p23Z4OqoZtKPTUc6JX0LwnHgH0zwIQAACBRHoL3gKMhpTToMAguc0+pFWQAACEDgGAgieY+ilE7URwXOiHUuzIAABCBRIAMFTYKeci0kInnPpadoJAQhAYHkCCJ7l++BsLUDwnG3X03AIQAACsxNA8MyOnAqVAIJHSXCEAAQgAIFDE0DwHJow5bcSQPC0ouECBCAAAQjsmcAigqfzp+Zt7+1pNNy9M6bxN6Sid9g0Mk2OcO+caXuPTb741hf95ZMfNLaT/UFrbhaO4GkyIQYCEIAABA5DYAHB0/Vem65rCYCMMLLC4pCCp3p/kH1XUOPlQol9elrlCYWZXuo6+r+BFSQSsaJ/u2psW20Z6QsKg/OhdgbmDQ4ieAYjIwMEIAABCIwksIDgaXvzcfpGYreD06YrwsVf254VASI49iKCqrcQW4O6bVN73J+FCN5AHAiL+gWL1fW0oQ1BF9eZbWtdcWuIHZ5WNFyAAAQgAIETJjCj4KkEQ2PR17/pJLs7ya2ixqJf9YTdNUnSJn/vyaWs6pwseNzOU+MPgq6aNtS+UuWp2tu2c+J2XPLlhKLOCpwGu0RM9WgngqfuIUIQgAAEIHA+BGYUPA6qXbh1N8MKl0rwiLjReM+/Eg1JvBUCmcU93vXIiBS7iSQiQepMBFhShzdB02Xqc38nLCdWVOyomMsILyvmgr+wXldYhzwflz80MW5rnSUMOTGViKJW0ZRrR1ja/sPc0to/U0qEAAQgAIE8gdkFT7TDIIu+FRKyoG/MRp5RaVmQ/WJvRUBeKNQiIBUcdeNrEaBipLqVtqr+WGmdtPqDm/VzM3KpIbYq4eLtc4mqdoWFVXl9+6YJjLqtcR3hWcQ6vNAIC/9p9jSK7BGB4OkBiSQQgAAEILAXAjMLHidEVBzoor31QicQIUHzrMiwmVTIdAmetVlbUdFRVmNxr8oNdnGsbavmHz5tCB5rZ7WDow0LbI/+KGpQvi1H7Mzk8deq+sPzNkHo44PyJF/brbTIxOQvssfXDneG4DkcW0qGAAQgAIGYwMyCx+3k6F9c778gV0bb3ZSNufA7Q3FjVKREz9rESdwOjb2lFV+woqISJGE4TpXZ4QkSuPo/bf57He5U7dg5qXaIvGDxoigWh1pNxKyFQzatRmaP7PBksRAJAQhAAAInQ2BewaOCxeJzuyJuQ6LaIfG3e0LBUO+C+J9qZxb6PmJHqrViZofg6erdLjGU5vM2tbUrjA92Zlw5OcGTxCUcIjHk25qwDOuMwjuEWdq4PZyzw7MHiBQBAQhAAAK9CMwreMQkK3pWZrPZVA8P28jWZ0isaEjFQLTQJ2LJ75Dk2z+74Elsz7UnF6e3wqLsll0gTCIOTsyFt7BSAZQn0s2/Pc/0Kwie6QwpAQIQgAAE+hGYX/CIXdWDx/Xi3H5LJSsGdKG3AqDeAbJpM4In3JWZXfBEuygduy2RsrGQzHZdP0Nk25Y+WK0cbF8nuz/9+n/RVAieRfFTOQQgAIGzIrCA4HEL82qzMRsRA3ahHyl4kq7qFDyVoJhd8CRCJifgcnH60kLJ7sROsLPj2921uxUydem8KVZwBuX5n7/7gmcJIHhmwUwlEIAABCBgjJlZ8FQLtF95dSGu4tt2Q3z6qs+inY26H50wSH+d5crW3aRjEDy1wHHiUG2vW7o7ZMsIdrvi82a5wmVMPbstaU+B4GlnwxUIQAACENgvgRkFT3ORrZsioiTYcagvuN2NnoJHb5X5Xzx5AZWKoKCCgUErmAIh0ZXdCZeO21jePt3pcqX5h7OrwgeXk+7gSDlJXCyAmte72rWvawiefZGkHAhAAAIQ2EVgRsGzy5QB11t2eAaUMDrpYMGTirVMzVZ89EiXyZqNyu/WJILTPv8UC0HJt0czsraFkQiekAZhCEAAAhA4JIHjFDyHJELZsxFA8MyGmoogAAEInD0BBM/Zu8ByABA8y7GnZghAAALnRgDBc249XlB7ETwFdQamQAACEDhxAgieE+/gkpuH4Cm5d7ANAhCAwGkRQPCcVn8eVWsQPEfVXRgLAQhA4KgJIHiOuvuO23gEz3H3H9ZDAAIQOCYCCJ5j6q0TsxXBc2IdSnMgAAEIFEwAwVNw55y6aQieU+9h2gcBCECgHAIInnL64uwsQfCcXZfTYAhAAAKLEUDwLIaeihE8+AAEIAABCMxFAMEzF2nqaRBA8DSQEAEBCEAAAgcigOA5EFiK3U0AwbObESkgAAEIQGA/BN53/fp1IwsP/8YxuPPOO2E30n/E9/hAAAIQgAAE5iDwvjkqOeU6VqvVKTePtkEAAhCAAAROggCCZ2I3IngmAiQ7BCAAAQhAYAYCCJ6JkBE8EwGSHQIQgAAEIDADAQTPRMgInokAyQ4BCEAAAhCYgQCCZyJkBM9EgGSHAAQgAAEIzEAAwTMRMoJnIkCyQwACEIAABGYggOCZCBnBMxEg2SEAAQhAAAIzEEDwTISM4JkIkOwQgAAEIACBGQggeCZCRvBMBEh2CEAAAhCAwAwEEDwTISN4JgIkOwQgAAEIQGAGAgieiZARPBMBkh0CEIAABCAwAwEEz0TICJ6JAMkOAQhAAAIQmIEAgmciZATPRIBkhwAEIAABCMxAAMEzETKCZyJAskMAAhCAAARmIIDgmQgZwTMRINkhAAEIQAACMxBA8EyEjOCZCJDsEIAABCAAgRkIIHgmQkbwTARIdghAAAIQgMAMBBA8EyEjeCYCJDsEIAABCEBgBgIInomQETwTAZIdAhCAAAQgMAMBBM9EyAieiQDJDgEIQAACEJiBAIJnImQEz0SAZIcABCAAAQjMQADBMxEygmciQLJDAAIQgAAEZiCA4JkIGcEzESDZIQABCEAAAjMQQPBMhIzgmQiQ7BCAAAQgAIEZCCB4JkJG8EwESHYIQAACEIDADAQQPBMhI3gmAiQ7BCAAAQhAYAYCCJ4RkK9du2ZE6KT/JJ4PBCAAAQhAAALlEUDwjOiTGzdumCtXrkSCR84lng8EIAABCEAAAuURQPCM7JN0d4dbWyNBkg0CEIAABCAwAwEEz0jI4S4PuzsjIZINAhCAAAQgMBMBBM8E0OEuz4RiyAoBCEAAAhCAwIEJIHgmANZdHp7dmQCRrBCAAAQgAIEZCLzv+vXr5q677uLfSAZ33HEH7EayE9/jAwEIQAACEJiDwPtE7PCBwBIE8L0lqFMnBCAAgfMkgOA5z34votUIniK6ASMgAAEInAUBBM9ZdHOZjUTwlNkvWAUBCEDgFAkgeE6xV4+kTQieI+kozIQABCBwAgQQPCfQicfaBATPsfYcdkMAAhA4PgIInuPrs5OxGMFzMl1JQyAAAQgUTwDBU3wXna6BCJ7T7VtaBgEIQKA0Agie0nrkjOxB8JxRZ9NUCEAAAgsTQPAs3AHnXD2C55x7n7ZDAAIQmJcAgmde3tQWEEDwBDAIQgACEIDAQQkgeA6Kl8K7CCB4uuhwDQIQgAAE9kkAwbNPmpQ1iACCZxAuEkMAAhCAwAQCCJ4J8Mg6jQCCZxo/ckMAAhCAQH8CPQTPpdmuN+aif5mtKS+3a7Nab81lksLGb3bX0JY/Ka73qS1vtTbb1KCOElye/fDoqKbXpYvNyqyHGW/WGf5amZTX2Q2XW7Ne7a/tCB4lzxECEIAABA5NoKfgWUVCRRbG1WrXv3RhFOGUX6B7CR672O6qM76+e/Gu0ncmDLqgsmGQyDDGXGyaosoyrOodK+R29UPDzstLs5W+y4geFXLbyzb1F/ffrrr7IEXwBL5FEAIQgAAEDkqgh+CR+t1it2pZxXot2B27A7sFz4XZrPJiaRwdV55rjwu3NC0ovsqzU+itTIPTxcasop2RuM5e/AJLNCiioyFq9GLrMRYuNpm1rynKwiJCgSbx7XW78nfzNAbBExImDAEIQAAChyTQU/CI5qlvZ8hiFy5ojQVb0ia7CCpq7LGPaJA0tpJusTUcTlVeaN/OBb/KU9ndJjKsKGi5RRYKhl4MQvtaGtkuOoIM1a7U7h25eHcsFGjW9sQe19Y0T30e+kdgTRRE8EQ4OIEABCAAgQMS6C94QiOSHYtY8DhxEIuCcEclLMiFVQw1r4jOWvsdk12LrC7qcd1hqZUdyeJtU7SKHhU7eosuU4bNm79V5Gv3gjHe3ZHrMT+fIwr0bbtj0L5bE/IMK2iLN9I2VS++DezwhOwIQwACEIBA+QTGCZ7klka4YIdhbb6N8zs2GlsfWxfbOom/rVaLmQuzyQgXEQZ1mqAA3enQxbtqQ/Q8SyVcgiSysmefeYkFSLvACCxoDeaYpYlb25UmNCKo2u1pY90WXxcfC9m4/fXOjorOiGFdSBRihyfCwQkEIAABCByQwA7Bo7sbbkGLhIQIiEpw1Au2pE8XW7ejsV7XOzVpe3YvtpIjWchbHsDNCQNb/iq+DWdLzD7A6+z1uxqRsQGPQGz5xT+zyvtrVf3huYqD1mNQXq5dkWn+JOHk412gjXVbvGa314M2a/yUI4JnCj3yQgACEIDAEAI7BI8WFX+711g9di2GupDq0ebRW0Adz/JE4koy2Tx6W8nXbH/5FeiCxsO0VmC0LNRd16y9q0+b/16HuxepmFM7qmPaLl+v4xfa6ZoU7Ea17CRpDYsKHm1X1QDHJuSSDzf6UBtTHRE8CRBOIQABCEDgYAQGCx4rEjqESrRbsd6a/904kdIQPF4MNNsWLu6D6kvtShVGUpUtu8OOMHnfRd62v1FvTvAkcYngCRmIHcM4qDBzdUR9kjLqOpd2WLGzNptN+w5dyCm1O7yWhhE8KRHOIQABCEDgUAQGC56cIVYM7BAOYwWP1mcX/FBIJALBpUtEhGZuOdoyd9itWSP7q8i+cfqz/tB8FRL+vYFJe1LhkJ6rXc1j9y2ttnJybZGyJb3Y7a/rs1BdQkmv7WCL4Gn2HjEQgAAEIHAYAkcieJyQiW+RVLsX0aJ6YMGjC/muY6RspONiu6x4SN8rFAmeOP3+ur69XC9oWiprXL/YZB8ObxNUuWIRPDkqxEEAAhCAwCEIjBA8F2aTLOh2MYyER9PUaMGMFvdm2uai2bZrkdxQZPcAACAASURBVC7g6Xmz7DBG6ol+pRVeTMKR/dW1vnHugetgpyT7K6rqYWkVUxHPsP0une8Cu+Oit7Di9yUlTWh5DsqlyrUlzJ9ev7y8dLfZIjvdjlAsTMNS4jCCJ+bBGQQgAAEIHI7AMMGz2Zh1ujPR8z0y0YI5SvDkH4xtfz4lEAEt/OYQPLbdVuA4MdZXDIQm2zICYRGfN8ttCkYpzQmltvqj/gkrr8K7rrtkTVsyRfkoBI9HQQACEIAABA5MYJDgWWV3Jvq9OC9aMEXw6E5Gy7FtYe7mkex+dCfO7lC0ZbH2t9jaaIvffpEdj1h4DS4n3cERA5M4W2YgiNLrKna6drOi/slA6LpuhaNnE7c3U5SPQvB4FAQgAAEIQODABPoJHrvApj8Jry1rLLj1JR+KFszBOzy+mEYgXmz1z1E0kmUjpu7w5AqN2plLMDAuv1uT7KRYARn3j+Rzusulzb9XqDZm33bXJbeHEDztbLgCAQhAAAL7JdBP8Oy3TkqDgCWA4MERIAABCEBgLgIInrlIU0+DAIKngYQICEAAAhA4EAEEz4HAUuxuAgie3YxIAQEIQAAC+yGA4NkPR0oZQQDBMwIaWSAAAQhAYBQBBM8obGTaBwEEzz4oUgYEIAABCPQhgODpQ4k0ByGA4DkIVgqFAAQgAIEMgdMUPDt+Rq8c3E/a+783RvMtdkzev6Pv13E/Pw/fxryYhYMqRvAMwkViCEAAAhCYQKB8wWMX+R1vWQ5e9GdZ9BA89r0zq7VZr/v8eQn3QsPGCwb9y/ZS+5oiytWXpsuft710sfmunEDkXF6ay+qFjimOCf5x0KwInoPipXAIQAACEAgIlC94AmPtgh++Ubjt2g7Bo2LH/aXyPi/mG/IG50CEtNkXxKfB/IsGJVXOhkxdO9qe1rfkOYJnSfrUDQEIQOC8CByP4EneJmxvRwVbGZEY6lj087exdokeJzaW3OGJ2ud9NCN4/LXyAwie8vsICyEAAQicCoHjEDxWwKS3iZxIUc0TCYKs4KlEzSr+EwxhRzoxlLue210Jc4bhvAiJ7AuTJ+H8Do+r397qqm5b9RFfyiapophTBE8xXYEhEIAABE6ewBEIHhUq+eddVpWAiQRFInjstcxfec/2biUo4udohgiebKlGbegjVOK65Q+Quran8e42lwjBvMjKW1JOLIKnnL7AEghAAAKnTuAIBE93F+iOSJvgsWJBnvuxIqhNNMXxm4tKZPnnhZzg6SNWfBqft9v+nVerW3mbzco0BI8XdgienRxJAAEIQAACZ03g+ASPCICMmGgTPF29q2KpK427NlBQeBt37U7FQsuLJf3113pr/nfjbuVlbfX1DLRvd4NnScEOzyyYqQQCEIAABIwxRyB4du+uyM7HbIKna6dIH5rxQkR9rClIrL2aXpN1HHOCpy6jWX5HUcVcQvAU0xUYAgEIQODkCRyB4En6oCEm3PVdgsfe2tKdk13HdAfJ3zoyxoThwLRafEiSdbIL1SLaNluzlfcAZexJb181BY/bPXKaCcETdAVBCEAAAhCAQIPA2QieRsvlzTa552LyCWsB01fwRLs3TUFSC6T0WihkamMatorw8784S8uoHnSObKjLKiXEDk8pPYEdEIAABE6fwMkInqirWkRJlGaA4InEhi07vyuzqgRGLWa0RhEkmTwqSIJdq2ZeV0Zkg3GiqN4Fygue+rraUdYRwVNWf2ANBCAAgVMmcJyCJxEPjYV9n4LHlpW+A6jLJVIxImmbgiQVNvbctiv3HqB4N8qlDdOl5ed3ibqsXuIagmcJ6tQJAQhA4DwJlC947K2bcHekTXwkuyi6e1L9SYbcczK74qSIeGcl5yROXERlBc8A1UImbEMYXpvtxdasAxHXEHDhblTFwzevMknsbLMhZ3UJcQieEnoBGyAAAQicB4HyBc+J9oPb4dGHlsPdmuqhZxFAgapxwuvCPuQcRB81HQTPUXcfxkMAAhA4KgIInqPqrtMyFsFzWv1JayAAAQiUTADBU3LvnLhtCJ4T72CaBwEIQKAgAgiegjrj3ExB8Jxbj9NeCEAAAssRQPAsx/7sa0bwnL0LAAACEIDAbAQQPLOhpqKUAIInJcI5BCAAAQgcigCC51BkKXcnAQTPTkQkgAAEIACBPRFA8OwJJMUMJ4DgGc6MHBCAAAQgMI4AgmccN3LtgQCCZw8QKQICEIAABHoRQPD0wkSiQxBA8ByCKmVCAAIQgECOAIInR4W4WQggeGbBTCUQgAAEIGCMQfDgBosRQPAshp6KIQABCJwdgfddv37dyMLDv3EM7rzzTtiN9B/xPT4QgAAEIACBOQi8b45KTrkO+QvlfCAAAQhAAAIQKJsAgmdi/yB4JgIkOwQgAAEIQGAGAgieiZARPBMBkh0CEIAABCAwAwEEz0TICJ6JAMkOAQhAAAIQmIEAgmciZATPRIBkhwAEIAABCMxAAMEzETKCZyJAskMAAhCAAARmIIDgmQgZwTMRINkhAAEIQAACMxBA8EyEjOCZCJDsEIAABCAAgRkIIHgmQkbwTARIdghAAAIQgMAMBBA8EyEjeCYCJDsEIAABCEBgBgIInomQETwTAZIdAhCAAAQgMAMBBM9EyAieiQDJDgEIQAACEJiBAIJnImQEz0SAZIcABCAAAQjMQADBMxEygmciQLJDAAIQgAAEZiCA4JkIGcEzESDZIQABCEAAAjMQQPBMhIzgmQiQ7BCAAAQgAIEZCCB4JkJG8EwESHYIQAACEIDADAQQPBMhI3gmAiQ7BCAAAQhAYAYCCJ6JkBE8EwGSHQIQgAAEIDADAQTPRMgInokAyQ4BCEAAAhCYgQCCZyLkVPDcuHHDXLt2bWKpZIcABCAAAQhAYJ8EEDwTaargEaEj4StXrtjjxGLJDgEIQAACEIDAHgkgeCbCFJETCh09n1gs2SEAAQhAAAIQ2CMBBM8EmPfdd58VOypyODrxBwc44AP4AD5wOB/4j//4jwkr1/lmRfBM7Hsd1HorS88nFkt2CEAAAhCAQJaArDN8hhNA8AxnFuVQx+MZnggLJxCAAAQgcCACuu4cqPiTLRbBM7FrU8fjV1oTgZIdAhCAAAQ6CaTrTmdiLnoCCB6PYlwAxxvHjVwQgAAEIDCOAOvOOG4InnHcfC4cz6MgAAEIQAACMxBg3RkHGcEzjpvPheN5FAQgAAEIQGAGAqw74yAjeMZx87lwPI+CAAQgAAEIzECAdWccZATPOG4+F47nURCAAAQgAIEZCLDujIOM4BnHzefC8TwKAhCAAAQgMAMB1p1xkBE847j5XDieR0EAAhCAAARmIMC6Mw4ygmccN58Lx/MoCEAAAhCAwAwEWHfGQUbwjOPmc+F4HgUBCEAAAhCYgQDrzjjICJ5x3HwuHM+jIAABCEAAAjMQYN0ZBxnBM46bz4XjeRQEIAABCEBgBgKsO+MgI3jGcfO5cDyPggAEIAABCMxAgHVnHGQEzzhuPheO51EQgAAEIACBGQiw7oyDjOAZx83nwvE8CgIQgAAEIDADAdadcZARPOO4+Vw4nkdBAAIQgAAEZiDAujMOMoJnHDefC8fzKAhAAAIQgMAMBFh3xkFG8Izj5nPheB4FAQhAAAIQmIEA6844yAiecdx8LhzPoyAAAQhAAAIzEGDdGQcZwTOOm8+F43kUBCAAAQhAYAYCrDvjICN4xnHzuXA8j4IABCAAAQjMQIB1ZxxkBM84bj4XjudREIAABCAAgRkIsO6Mg4zgGcfN58LxPAoCEIAABCAwAwHWnXGQETzjuPlcOJ5HQQACEIAABGYgwLozDjKCZxw3nwvH8ygIQAACEIDADARYd8ZBRvCM4+Zz4XgeBQEIQAACEJiBAOvOOMgInnHcfC4cz6MgAAEIQAACMxBg3RkHGcEzjpvPheN5FAQgAAEIQGAGAqw74yAjeMZx87lwPI+CAAQgAAEIzECAdWccZATPOG4+F47nURCAAAQgAIEZCLDujIOM4BnHzefC8TwKAhCAAAQgMAMB1p1xkBE847j5XDieR0EAAhCAAARmIMC6Mw4ygmccN58Lx/MoCEAAAhCAwAwEWHfGQUbwjOPmc+F4HgUBCEAAAhCYgQDrzjjICJ5x3HwuHM+jIAABCEAAAjMQYN0ZBxnBM46bz4XjeRQEIAABCEBgBgKsO+MgI3jGcfO5cDyPggAEIAABCMxAgHVnHGQEzwhu165dM+Jw6T+J5wMBCEAAAhA4JAEEzzi6CJ4R3G7cuGGuXLkSCR45l3g+EIAABCAAgUMSQPCMo4vgGcctEju60zOyKLJBAAIQgAAEehNA8PRGFSVE8EQ4+p+Euzzs7vTnRkoIQAACEJhGAMEzjh+CZxw3m0t3dnC+CRDJCgEIQAACgwiw5gzC5RMjeDyKYYF//etf5j//8z/Nv//7v5uPfexjRs75QAACEIDAeALXr183d911F/92MLjzzjthtINR6EfiV/JB8Awcm//85z/NzZs3zfvf/37z3e9+19x33332KOcSL9f5QAACEIDAcAKySPGBwL4JqF8heHqS/cc//mG+9a1vmQ984APm1q1b2VwSL9e/+c1vGknPBwIQgAAE+hPQhal/DlJCYDcB9SsEzw5Wf//73803vvEN88EPftD84Ac/2JHaXf7hD39o00s+yc8HAhCAAAR2E9CFaXdKUkCgPwH1KwRPC7O//e1v5utf/7r50Ic+ZH70ox+1pOqOlnySX8qR8vhAAAIQgEA7AV2Y2lNwBQLDCahfIXgSdn/961/N1772NfPhD3/Y/PjHP06ujjuVcqQ8KVfK5wOBvgR4iJMHWGWy3vc/fYizrx/OlU4Xprnqo57zIKB+heCp+vv27dvmq1/9qvnIRz5ifvKTnxzEC6RcKV/qkfr4QGAXAR2ou9JxHQJDCJTqV6XaNYQtacsjoH519oLnL3/5i/nKV75irl69an7605/O0lNSj9T35S9/2Uj9fCDQRkAHatt14iEwhkCpflWqXWMYk6ccAupXZyt43n77bfPkk0+ae++91zz33HOL9Mzzzz9v6xc7xB4+EEgJ6EBN4zmHwBQCpfpVqXZNYU3e5QmoX52d4HnrrbfME088Ye6//37z4osvLt8Txlg7xB6x68033yzCJowog4AO1DKswYpTIVCqX5Vq16n0+7m2Q/3qbATPG2+8YR5//HHzwAMPmJdeeqnIfhe7HnzwQWun2MsHAjpQIQGBfRIo1a9KtWuf7ClrfgLqVycveP785z+bxx57zHz0ox81P/vZz+YnPaJGsVPsFbvFfj7nS0AH6vkSoOWHIFCqX5Vq1yH6gDLnI6B+dbKC5/XXXzePPPKI/TtXP//5z+cju8eaxG75O11f/OIXjbSHz/kR0IF6fi2nxYckUKpflWrXIfuCsg9PQP3q5ATPH//4R/OFL3zBfPzjHze/+MUvDk9yhhp++ctf2vZIu6R9fM6HgA7U82kxLZ2DQKl+Vapdc/QJdRyOgPrVyQieV1991Xz+8583n/jEJ8yvfvWrw5FbsGRpl7RP2int5XP6BHSgnn5LaeGcBEr1q1LtmrNvqGv/BNSvjl7w/OEPfzCf+9znzCc/+Unz61//ev+kCixR2intlXZL+/mcLgEdqKfbQlq2BIFS/WqQXZdbs16tzGrwv7XZXsbULzYrs9pcxJGTzy7MZr01UVVic6aefP2XZrtemUzy2DLLodkmSXS5XZtVakOcO3tm7Vnly8xmKDxS/epoBc/vf/9789nPftZ86lOfMr/5zW8Kx30Y86Td0n7hIDz4nB4BHain1zJatCSBUv1qX3bZhX6nUgh6oEM0BKlMJAQuNq1iS6uO7RABkxMRF2azygmbfoInriO0tl/+MIeEbXmrtVmvVz3EkrO9v+hstt/V10+4rlOlmhrfcq5+dXSC53e/+535zGc+Yz796U+b3/72ty3NO69o4SA8hIvw4XM6BHSgnk6LaEkJBEr1q+F2DV1wN8bv43QIltVK0jXLdkLm0lwG2zax4GiKjIuNW+QlXXbBtnYEdnkHaZblL0mgbYdLd3Tarnfs3KjYcbrC1d+989Um1iJLqxNJ2yJ41OZcNs29WeX5deTRS+pXRyN4WNS169qPiMF2Nsd6RQfqsdqP3WUSKNWvhtuVX3BjEVL1QU5YSJxux9hkocjIL9CutEoMdNxOW6/XrTtAofCRXSM5d2Kj306HNdkKmkQoSXsq8SDlRk0Twzt2sqLdqwqZMbtEj+PPDo8HNi3AbZvh/LjdN5xZqTkGLQCt3+h2TaLNb1128mvMlv0p2cm7x7e2viXG3zz75XJ5kgWhX9a9p9JFrVfBHYvSvrgO8qteRu8n0XC7JgoevYVjfdUt7rUY6RI8dXvjvg0FU1uaOl53aZpDTcpxt5VEODWvq3hJ/FsFjx6Dqmww61uVqLG7WmkGd+7EUFKXvZTn31IKOzx5MMY+gMyDuW10+sWf4wPd/cgcT6rhC0C+bXahzM6a+fRd3wTDHG4iTATTCOHVaVpYXmfCwLIqT714Bdc6gnr7IUxi21jVO1ZwOE7twjO0s72v8otpaGvf8L78qm99fdMNt2voDoMu2rrId/XJNrtAp22Rvq37L99HcRotobah4dZ252nrHlre5h90dmNU21OVWQmdrezubDaBXdV1Oy7qPNbXVqH9alvmKGU30g4RPJkyVXB27JSFu0c153xZbbHqV8Xd0uKn121dNj7+HH6yP55O2Tl1oPa3cuwCYIypJrRwgqnDMkk2y3YTdfhMg0szdmJqtrOq01bkwo3FoZGpaWfdjmSBSwuzDOoFwVRt1mRTBM9OJqGwCxcA3Slru555LqKBJIkY7ldJAQc6HW5X3ieyorHRt0EjEiHgrnT4kfRJx3gRf1ExkfM9f329MZvML7FEIG0uVDzJMflSIQbmbBab1F8S37VtCvJYES5pW/0qGSv2wepKpCV15NrYGufzBvwPHFS/Kkbw8HK9A/e4Mfalhaf2UsbDU1u2Bh2o/a2YuADIhKmru61UJ105kbIzE683rpoMo/z+4ohAOrmqKOthQyUY2kSGnexb2mKvVW3oWrT8hN5jApcy22zxYILFyMcFC5iU0UBr83Tx8CVFgeF+FWU/2Mlwuyb6u7Ykxz7x96yIStLoMy9pP+X63+0mhuOrMsb3eXCtMS5V8DRFSS14NE3gH1JOx60rxZGzV6/Fx11zQpzafqmy46Ua26GwHxLuMebCmtWvFhc8/PmEsFvmCZ/Cn92Yh9TytehA7W/J9AXATuzBpFQv1N2TW7ggyITpBUHHRFaXnbbQtSOavDWJnbSDSVzj9QFLP6FnyrB5d/zc1i9+TZY1G19pI9C37Y5P0A5fb1Ck2Ct9ocfgkg0ieOxPuvv4mksT7N6pL2T9U3c06/4J/dt3Q1u/+AQu0C4gAlFjk4Y+F16TcG2LTdrlL0H91h9VINg2BwyCdGGw3d4wlYTF3soua0/LuFcF2OAV5K+KznJOqx14rvPoYoKHP5A5sMcOkPwY/7DqATAUXaQO1P5Guglz+AKw+xvXetvvmQb9lluLmcwL2OxmTcuuh06cOklWaSPxUy1WQRJ3S04n9gBYLECSRSNI1yfYV/DUbe8qNZnsOxawvs9kdNUWXhvuV2Huw4XH2JVbnHNx7pZty2KfY5/E5Rbi2Lfqxd6Nlfq8MR69n4aiRlw4fAFifK1hf2Kf7ZWGoJDYwM8y19va0LBZhKG3u/KB0IYwHLhIyK05flrmq417filnQ7+xFRhgjFG/ml3wvPTSS+bBBx80jz/+uHnjjTdiqzhbhID0g/THAw88YKR/+JRDQAdqf4vcBBIJAX0wMI20omHAAmAnzpZJPJoIgwlWDL+8NLJgp5NlblGyE2LmJWx2Uo7qkIKryTJtl4UVCLggn5/cM3n8tar+8Dw38UZxQXmSr9+knHKSNwcn/REtUJm+bVlkdvnLcL/aVeJ+ro+zq+pr7QPLpI+wrfKJf1Qct+GbiSP21TM5WodtbuV/ib/m+j8X54jVosb5vvR/XW7qY3UavV3V5S+ZPknalEnhWtbXh8PyWnzR2lxxC8Ou7mQMRHNVeq1m1WZ3W7z61WyC58UXXzT333+/eeKJJ8ybb77ZZhfxCxJ46623bP9IP0l/8VmegA7U/pa4yTKal6NJJChJJqt0gdXL2ckrnoCak1eVOVtuc7JKFwE5T0WRmtN1zS0Cnzb/LW+G9bcndix41sYgvRdFTTvFhsjWcJJXA4NjlDaIbwZjnvoT5boNlX3eNl3kgrZlWTdrSmOG+1VawmHOp9hlfaTq/z6CM/KpwN+dX7sdhrCc1N/lXHdywvGW6/9cnCNY+Zv8EqsxFtt90Y6TwGbfGzt807Yh9CefMQ6029uRztoTjCk/Futdq5Sh/9ISppWwAg3a08wb29J1pn51cMHz/PPPm3vvvdc8+eST5u233+6yiWuFEJB+kv6SfnvuuecKseo8zdCB2r/1TvA0Fs10QvHnwTdEu3i2TFh2Mo4X6HQCsguIL7etnJZ4neBaGmrL7jFRS3ZrV187GvXmFpkkLpiEpb50cRjGIRAvPRewiIXts6APW/il0cP9Ki3hMOej7Wrx3VCwdFqcss9wbfp7vRsTulHqD1JvLs7Zk/hWZGTXNRW/mfHUOk5ceV5MRHXFJ+32Bukss8B/g0v5oKs/7pN4TpF8Ked6PA/3c7VD/epgguenP/2puXr1qvnyl79s/vKXv2i9HI+IgPTbV77yFduP0p985iegA3VIzbnJKhfXeCYgrCRdAORaEpdOTJpd6oom1UQguHQ7JnMtrDraMlsn8jhxzq6+cfr8UbiAOU7BxJ60J2WbnsfWhWfJZJ/wtSmTulzuIF/2elhHPjzGr/Il7Td2iF3WJ1TYRh1W21Qvlokw0PTCT8vw/pX3zZwPte1QxIv6IQVPIgIif6gEjrbPHsP04kcJl57ngm+3n2fq94z7fDFZm+1F/AdiU651T3eH1K/2Lnh+8pOfmI985CPmq1/9qrl9+3a3FSd+NT9AdjTaTnqZn5/uyHbIy9KP0p/Sr9K/fOYjoAN1WI3VRKOTuvWpYMFuLazKJ5NStfgOe6ZBCnZlxBNTUK6v28WpiT66JWAXt2CybElmo1sXudxk3jAgtkvLitqTWVQaxXQZ2Hatt+AJCohsCeJ3BMf51Y5C93C5VLvam+ZEQ9j/OSGQi3Nlxv4W19N1LU55Smdu3dSHlkOBFoikEHiPxqtf7U3w/PjHPzYf/vCHzde+9jXz17/+tYcJmkQcJm6UuxJ8i6mSjhIQWs2uY+ei0LRlV3Fyfbi9zsHbnmPYVaetr2VRaB9wu0qtr0u/Sv9KP0t/H8Un/AaXW/CiuD6iYN5W60AdU6sVCVX7ogW7pTCbXv0nWHzDCSgsJ+/fbWMlnbzT8xajqujItu6k2XGXszUXp9/YZT611/Unt1Gd0sbgm7Eys2nC9rt0fm5O55iAsc2ankvkDkFjbYzqjwxtPZniV62F7uFCqXbtoWkUsSAB9avJgudHP/qR+dCHPmS+/vWvm7/97W/Dm6S/4LATSzKRhJNKLuwHeiUUcmlycT5fba6dUP3MVMe7UDiJxdfcpBhMfrn6WuLCxUNKDRcov82ayZs30zGoy4wnWym7vha3YeiZ9LP0t/S79P/RfdKFp+AG6EAdbGKL0OvtA+nia8uLv5h0CYYu/21e2y005xA8tcBJx1J/+qkAic+b5Ubj0jLPzCWZ+cpZVM17+Qmh0+jRftVZ6vSLpdo1vWWUsCQB9avRgueHP/yh+eAHP2i+8Y1vmL///e+T2xINfFtaU2TkJ1hJ3JxI2gyKJ6AqVTKZ2zQZodGYqHdMNO32Nq0L68wXW01ubZNfboEK0jb5Nm0YGiP9Lv0vfvCDH/xgaPYF0lcMbd9uzIXt992L7RyGXrt2zdy4caNRlQ7UxoVMhBUF6rd5J6p2LTKLqqYPhZL3H8dNk2jVQ/xb89THWJDX8fmQbZu3J59GY8Ox1BizykePQaPSv6M1uJyckE7ibJlhO8Lr6RiWBkl/+PSh/2ofxiJUGew6DvGrXWXt83qpdu2zjZQ1PwH1q8GC59atW+YDH/iA+eY3v2n+8Y9/zG95tkY3EfT59tqYcHqJpab4ypqRRNq6ggk1uVyfRguvWwgaD33KBN1Rll0QguvR4qeTe3IMkte2jAiJH3zrW9+yfiH+Ud6nXihcm4WxLhTptWWsl4X5ypUr9gHKUPjoQF3Gqv3W2vDJAQ44WPD0KLv3+OyJQWxszkHJ3GTHuvqeK1jy9TC3pxX9kpXqV6Xa1Y8qqUoloH7VW/B897vfNe9///vNzZs3zT//+c+9tUsmnXqSqBb7ZGFu/ZaWfPOpy2k3LxU88bmrv1mOxHftBAy02y+2YqdMiGnZ9SLs2h5PkI3W2W+GgSDKfFPMT8aNkiZFiF+If4ifiL+U8LELZaPvpL9SphXzuVeeClLo46Hw0YFaAktsOB0CpfpVqXadTs+fZ0vUr3oJnuvXr5v/+q//Mv/3f/+3d1ryN2LWInC8eKmriL+BuQUpvx6lAkG3e1uOvq5MPltBJr4hwsIFMy+IYvurdmXESN3iagu7UZdrx862VwnsIp8knkPwaDvET8Rf7rnnnvonny1tChf6MeGnn35aq53tKHWOsXVoHhE+d9xxx2ztoqLzIaALQGktLtWu0jhhzzAC6le9BI8UfagdHme22yFJ1ujk1xa7BU9jZya6/+1qind0amg5kVBf3RUaL3jcDkQgzFIIQdW5tNqeC3klus0rnNIdoz7vTAgqGhkscYfHNcX5V7fgCAXsSAATsoW2scMzASRZexHQBaBX4hkTlWrXZAT2i244L4drXn79COvUef4yjAz/RlYUz0lKQP2qt+DRAg79DI/t2J67AR3awJmbETzajugou0zb2JWi6ztP8g5r25IauWuHJ6gr7+RBArsh5AZRtq4g6SF3vsOSOQAAIABJREFUeMp/hif/xytrPNJ/ywueUOiobTpQ9ZwjBPZBoFS/KtWuqcyb83OwZlxeGrnTIV960uXC1eu+7DfWqMtLY7/oNm7ZB9ZW5YZfqHaFG/UExR1rUP1qsODRBu/3V1p154eOES/SdZrwXRlqTzauj+CxAiTYYVm5Bw+tHV3Cy98WEwvEtriMbqdKFtcRTpkODM8t055WW6I21CT7ho7nV1rlC559/Eqrb7+RDgK6AJRGolS7pnFy60M8Z4frWVV625dhGx/uDsXW2J3/uPA6QbIG2nUimPf9ulHliNfcuphjD6lfjRY8CmDye3ikoKCj6w6onqPRzok6PeNA0fXKui4hUZVr66tEjrbJmaS3iMJYF06dxgme2CGtE1YiKFLMQVubJccxzXri6+FZzS2MrcP7dOTjew9P+YKn7qk4pAM1juUMAtMIlOpXpdo1hXZ+Hs8InpZKfH67dvT7Yu3XnK41sOVLus/bYs8xRqtfTRY82vjxb1qu3mgaChBRq5Uw2OhPPX3Hye5IU/B4p1CD5Jio2/DSrnCXgMjW5Qustx+1DD36JK2B+PmbsB4b7ti63FXHPgTPUb5p2bJ2/tK602UHfrLr1tpH817QgTpvrW21xf6ZS7XLD3N5bJwd3/GXhta09kL1hUj6Tr8UdWeIroZjq77QfxGq8xxnqCy/qhmWaldt4dCQm3usiPBr2G7RUm/Y1OvJ0Jq70u9jPegqv7Rr6ld7EzzawDF/S8vuhlQ97CZM93c0nNJ03863lfCxaddr+8uu1ClkQYvU6QDBY+tVxbu5SB6Y1ta5Y36y1F9Y1ZO2a8uFy7RzQq8W5Y38HaNmPZc2sl6467YHadNId8n+P8XBj/9vabHDE7jCpGCr71elRj4/sCY3trem9Wm6ZMGIxvqguloWkTN6JkIXgEHYZkhcql1jm259Ol2XbGEqrvXYUkPl897Xc3cyfFa3Pvi0yXjp/sIXizBfhi/7uAPqV3sXPIql/19Ld52ka7WdMNNvbbbj9Bu4LF6J4NHrvoOrtHLe+e2v/paYdrC3Q0VQegzL1a3GMC77t7S0Pm2Lo6V1ZW1QMApWjlV94aVdC80YwcNfSw+hLxPWgbpM7blaA7Hgx1s8WWYnVnVWHSvpeNpxHo+NwAZvoo6tnC3xeHPjp/5i4ouoAnaRUnubF6M5xY67YNyn43DMuEurPMR5eX7lWlmqXaP6oFqX/F2KsBA7DsQvuwRP7dO1/+d8vyrY1tfu12H1pfplaOM+w+pXBxM8auzzzz9v7r33XvPkk0+at99+W6Pro+34upPSCUMSSufE80/gJG2L/44J1E7KcaG1TVmxUl8OJzk7Obb8wifXFluKTvpSf9J+FTO6aHSYWBu0w15JOMTBpZ+kv6TfnnvuuageTuYloAN13lp31CY+GyzyYepWn9dE1t8TAaLXeh9zk76La4yXTH1+/NprOYHUjPMLzhCRV81BPm/v9h0+YZF+ZYwp1a4xPaJ/qiQ794of2TEUrGVJJdZPVxuTCibvv0l6uxY1BoDeeWj6tK4x0TGXP6nnGE/Vrw4ueBTOiy++aO6//37zxBNPmDfffFOjq7/tU0+AnRNmONlUE27WmXzpywY627Ksadna33rrLds/0k/SX3yWJ6ADdXlL8ha4SXnHZBpOoqkAsWO6Hv9aS25c2wm95YvM5qKv4MmJJa11/DFn7/jSDp+zVL8q1a4pPZLzjXptaBc8rYLJjqF6k8DZJuWkGwOV1V5cdbeitqk73TFeVb+aTfAopJdeesk8+OCD5vHHHzdvvPGGRnNckID0g/THAw88YKR/+JRDQAdqCRaFgkM1jJ0kg92edNJMz90O5sZs5UWZLeIlF6/1WQ7Vzky8c9JT8FRfmnze7OKhtN0i4tOGX7gG2C7t8WVo0QsfS/KrEEWpdoU2Dg03BU/oq+2CR+tpyx/5VMsXB1vGEL+NBppacPxH9avZBY+i+9nPfmY++tGPmscee8z8+c9/1miOMxIQ7sJf+kH6g095BHSglmNZOFnHv7AUG1OBk56r4Kke5Xe/pMzcEm5O8jUBW2ZDRMR2+dTRjpJLEwsQFxctHprZLhTpN2m9GB+77I1TlnFWnl85LqXaNaXXGr4RiZOm4JH04R+KbuTXcRZ80cil8TZLfUFaH58EGmM1uX7Mp+pXiwkehffzn//cfOxjHzNf/OIXzeuvv67RHA9IQDg/8sgjlrvw51MuAR2o5VgYCwsVH7ldGR8XfmuMBEj38wVZERK85HMtP17wb0iP7fK8gvqcrTwTIWzK8yvXY6Xa5f1pRCAWI6nAzgue2q9bnr+MdiabZURmssPj/X1xwaMd88tf/tJ8/OMfN1/4whfMH//4R43muEcCwlX4Cudf/OIXeyyZog5FoLwFIBYWVkRU3x69+AkEjo0Lzhs7PEPB2W+rG7NZB88N2fJju3yxgeDhmQhPxS8AdUwZofL8fTqXUPCo6PY7nI1faTX9OMyfs6YxxtJE7PB4fy9G8Ggf/epXvzKf+MQnzOc//3nz6quvajTHCQSEo/AUrsKXz/EQKG8BaE7IQlMm5dUqfjYn/Jbqievka4VIIFranokJxZLRut3RlS/fbuVhTb3ma3KBQPDoleYCEpZXpbLfipsPU9ur9loP26VNkf1qwfLH8vzKMSnVrik95v2t8pvUJdzYCfwpuf2k+f0XiraxEsav/8f8T/ilILzWJ5zYMKX9JeRVvypO8CicX//61+aTn/yk+dznPmf+8Ic/aDTHAQSEm/ATjsKTz/ER0IFajuWJsFDhUs3i4bdNncjDCT68Lm2y55nJ1eWNBUedNiNQvBhKSPUSPE07dJFJSnOnKtqyF+vItK31leVD5fmVY1KqXVN6zPnShdmuW35FtaPwTl/ckZfLjoD6VbGCRzvqN7/5jfnUpz5lPvvZz5rf//73Gs2xg4BwEl7CTfjxOV4COlCLaUElcETE2AU9+XMnzUVed2CkBTmhYlWPfXP6auPesC7P/oQiSduut6Ty5SRCTDP1FDzuVps+oHz6z0QU51dVf5Vql7oTx+MkoH5VvOBRvL/97W/Npz/9afOZz3zG/O53v9NojgEB4SJ8hJPw4nP8BHSgFtGS5FZOTpR02mnzx7s27g/vuu389Xpj1roN31l4Tji5OP+gdLRtH9e56xtzU7QlrWKHJwGyv9Oi/H1/zaKkhQmoXx2N4FFeLOpKoj4iBmsWpxbSgVpCuyKhoLeyImERPIeQxm8u6rd9R8IpFiO+nVGa9D027YKnoZM6dnjcDlWHzWEbTuyZiJL8yvd5wb8eC20kfHwE1N+PTvAoam7bGHu7itt96hGnedSBepqtW6ZVkXBbxoTFay3Vr0q1a/EOw4BJBNSvjlbwaOvP8cFcHujW3j/9ow7U028pLZyTQKl+Vapdc/YNde2fgPrV0QseRXMOP73mJ/va2+dz1IF6Pi2mpXMQKNWvSrVrjj6hjsMRUL86GcGjqE7x5Xq8lFF79/yOOlDPr+W0+JAESvWrUu06ZF9Q9uEJqF+dnOBRdKfw5xP4sxvam+d71IF6vgRo+SEIlOpXpdp1iD6gzPkIqF+drOBRlMf4BzL5w6raexx1oEICAvskUKpflWrXPtlT1vwE1K9OXvAo2jfeeMM8/vjj5oEHHjAvvfSSRhd1FLsefPBBa6fYywcCOlAhAYF9EijVr0q1a5/sKWt+AupXZyN4FPFbb71lnnjiCXP//febF198UaMXPYodYo/Y9eabby5qC5WXRUAHallWYc2xEyjVr0q1q7T+vu+++0ozqWh71K/OTvBor7z99tvmySefNPfee6957rnnNHrW4/PPP2/rFzvEHj4QSAnoQE3jOYfAFAKl+tX169ftX7YW+/iXZ3DnnXeaf/u3fzNyhFGeUcpF/Eo+Zyt4dLL4y1/+Yr7yla+Yq1evmp/+9KcafdCj1CP1ffnLXzZSPx8ItBGQgcsHAvsmgF/tm+h85YV/PmW+Wk+jprMXPNqNt2/fNl/96lfNRz7yEfOTn/xEo/d6lHKlfKlH6uMDgV0EWJh2EeL6GAL41Rhqy+e5ceOGuXLlihHRI0c559OfAIInYfXXv/7VfO1rXzMf/vCHzY9//OPk6rhTKUfKk3KlfD4Q6EuAhakvKdINIYBfDaFVTtpwd0fD5VhXviUInpY++tvf/ma+/vWvmw996EPmRz/6UUuq7mjJJ/mlHCmPDwSGEuCZhn736GUB519/BvpMw1B/JP1yBMLdHRU77PIM6w8Ezw5ef//73803vvEN88EPftD84Ac/2JHaXf7hD39o00s+yc8HAhA4PIGnn3768JVQAwQWInDt2jV7K0vFjh4lnk8/AgiefpzMP/7xD/Otb33LfOADHzC3bt3K5pJ4uf7Nb37Tps8mIhICEDgIAVkA+EDgHAjg6+N6GcEzkNs///lPc/PmTfP+97/ffPe737W55SjnEi/X+UAAAvMTYBGYnzk1LkMAXx/HHcEzjpv517/+ZbbbrbnnnnvsUc75QAACyxFgEViOPTXPSwBfH8cbwTOOm8+F43kUBCCwKAHG4qL4qXxGAvj6ONgInnHcfC4cz6MgAIFFCTAWF8VP5TMSwNfHwUbwjOPmc+F4HgUBCCxKgLG4KH4qn5EAvj4ONoJnHDefC8fzKAhAYFECjMVF8VP5jATw9XGwETzjuPlcOJ5HQQACixJgLC6Kn8pnJICvj4ON4BnHzefC8TwKAhBYlABjcVH8VD4jAXx9HGwEzzhuPheO51EQgMCiBBiLi+Kn8hkJ4OvjYCN4xnHzuXidvUdBAAKLEmARWBQ/lc9IAF8fBxvBM44buSAAgcIIsAgU1iGYczAC+Po4tAiecdzIBQEIFEaARaCwDsGcgxHA18ehRfD05nZptutV9q/VivPZf+utuexdHgkhAIF9EmAR2CdNyiqZAL4+rncQPL25ieBZm22borncmjWCpzdNEkJg3wRYBPZNlPJKJYCvj+sZBE9vbuzw9EZFQggsQIBFYAHoVLkIAXx9HHYET29u7PD0RkVCCCxAgEVgAehUuQgBfH0cdgRPb27s8PRGRUIIzETg2rVr2efqJJ4PBE6VAIJnXM8ieMZxIxcEIFAAgRs3bpgrV65EokfOJZ4PBE6VAIJnXM8ieHpwu9yuowlVnK3z3+aiR6kkgQAE9kEgNxb3US5lQKBUAgiecT2D4BnHzRiz45me0eWSEQIQGEIg3OVhd2cIOdIeKwEEz7ieQ/AM4XaxMSu/e9PyTA8/TR9ClLQQ2AuBcJdnLwVSCAQKJoDgGdc5CJ7e3C7MZrUya/8iHnZ4eqMjIQQOTEB3eXh258CgKb4IAgiecd2A4OnFze3mrLcX7m3LdpcHwdMLHYkmEbh+/bq56667+NeDwR133AGnHpzEn8SvSvzg7/3G+p133omv9/T10N8RPDtHvYqd+hXLOx9i9re9dhZOAgh0EpDBygcC+yZQql+Vate++VPevATUrxA883KnNggMIqADdVAmEkNgB4FS/apUu3bg5HLhBNSvEDyFdxTmnTcBHajnTYHW75tAqX5Vql375k958xJQv0LwTOT+9NNPTyyB7BBoJ6ADtT0FVyAwnECpflWqXcMJk6MkAupXCJ6JvcLT8hMBkr2TgA7UzkRchMBAAqX6Val2DcRL8sIIqF8heCZ2DIJnIkCydxLQgdqZiIsQGEigVL8q1a6BeEleGAH1KwTPxI5B8EwESPZOAjpQOxNxEQIDCZTqV6XaNRAvyQsjoH6F4JnYMQieiQDJ3klAB2pnIi5CYCCBUv2qVLsG4iV5YQTUrxA8EzsGwTMRINk7CehA7UzERQgMJFCqX5Vq10C8JC+MgPoVgmdixyB4JgIkeycBHaidibgIgYEESvWrUu0aiJfkhRFQv0LwTOwYBM9EgGTvJKADtTMRFyEwkECpflWqXQPxkrwwAupXCJ6JHYPgmQiQ7J0EdKB2JuIiBAYSKNWvSrVrIF6SF0ZA/QrBM7FjEDwTAZK9k4AO1M5EXITAQAKl+lWpdg3ES/LCCKhfIXgmdgyCZyJAsncS0IHamYiLEBhIoFS/KtWugXhJXhgB9SsEz8SOQfBMBEj2TgI6UDsT+YuXZrvemAt/Pj5wuV2b1XprLpMibPxmdw1t+ZPiep/a8lZrs00N6ijB5dkPj45qel262KzMuq/xl1uzbmnrvrgO86teTdxLokF2WU4rI3PwsH9NP5L+WfXw67ZG7qtftHz83ZHYF1f1KwSPetjII4JnJDiy9SKgA7VXYiOCZxUJFTuR71wQUlHgyskt0HYC2rUwjFiIOosMy+tMGFCq8uTaEKRqBC823Yvh2Al4Vz+EdrYzdv3SF0GjcUHEML8KMh44uC+72hm2NMD6S7Pv09SuH5N0oX/uHGtOnHX2YVheZ8LAOvw9gNEMql8heJpsdsZcu3Yt+41C4vlAYJ8EdKD2L7MSPS0TZa8F206eqQhyFuxeSC7MZjVgN2Nnw1x57tu3C7c0LSipytNn8UkLu9iY1Spse1xnL36BJRqUhTIUNRofHcOFLrRdd9rarrfsBkVlJyfD/Sop4ECnw+0a0NeWadC3tq/bdockXbNs5y6X5tLvNLo0O/u2N6+qTluRC6cu2iyqaWfrjlda2Jn5O4Kn6T07Y27cuGGuXLkSiR45l3g+ENgngeELgDEmECyy0IZzXGPBlrS6oFaGq6ixx3Dh7QrbSrrF1nAuVXmhfXaCTr5hRwVXeSpb2xai7Df1qhx7rYLWi0FoX2RLfdJf8AQLsmSX9lblp31pS7d93cWjtiEMjfKrsIADhYfblRcF6sORmY3FveIbDpBql9RFSdldbPH3iG9wUqq/I3iCThoSzCnoIflJC4E+BIYvAEmpySRvFwK/QLsJOxYF1bfFaBGoy8wuJNXl8JoVDV0CaYcgMfrt2tta22BFQHYhUrGjoqFqS1iG5RHf9gtKdkEvGJuLacyvkdNG9G27m0OCBdXXG5SrgkePwSUbRPDYHcXUXUNf9MiSsaDxdZ+m46Fb8IR19O3zeKypBXLM+KpetnYHfqLxegvb70hmyrB58XedRxE83nmGBcJdHnZ3hrEjdX8COlD752imDL9t1ZO7bAQ1H0y2cSJG0hWkKjac5Js1aUxm4QhFR5UstEtz2qNdxGMb7IISllFN5JGZEhemCeqpv6DkFo6o9s6THLM0Q2u70oR2kQvs6RA8W9mp22yat8VyeRr1NCP24VfNUqfHDLerWuR7iGvnAyqGVRy33dKSW5DbHTs82l78vV3IKSM5JgIy57vVGD6UvyN4wv4YGK4n0dXAnCSHQD8C/ReAeAKPJiCZWCohUC/Ykj5YbK05bvFYr9cTBU86sV0amcBSMZITBiq4IiFj7zw08/tvxWli25aARyCCrHBqEXT+2srdBgzPw7GeDQc25NqV7+2Uk/w6SxfkKkck4lz/BFVFty/zdeRj+/tVPv+hYofblWFi7+pmfNiK5ISvNiS3+OquS05MBT7VXMjxd8UaH5f3dwRP3CODznSXh2d3BmEj8QACwxeA9NtmXFkteOJ4ObPXNhf+aFPYRaL9W7As/pG4kkzZhcXZFS7WqTCwAiNaSGobu645kfRp89/yCzW/OKViri4r2y5fb9NO16SgnZEIScqtxFmDSTNZyzfesA1V2Numz2cFbcuyzlYWRQ73qyj7wU6G23VowVOz1vHRaHy2D5p+hL/nBM+8/l6s4Hn11VfNt7/9bfPII4+Yq1evmuvXrxsZDKX9u+OOO4qzSVgJs0cffdTcvHnTCEs+x0lg+AJQCx4rErwAyEws4bX11vzvxn37jSb2AYv7oPrCuiUcKqFMV3UJnjS5E0A72qv1N+ptLlQmepC1EnSBCMkuZFr+zmO9oIYPm/s2ZfhHLLKLrc/dGhjuV61F7fXCcLuc4KmF7q5+D3Z4LLu29JIuXqCjcVEJ2/71JvU0/C7GGPVxfKlxhr83kDQi1K+KFDxPPfWUeeyxx8z3v/9986c//cncvn270QAiugkIs9dff93cunXLCh9hyuf4COhA7W95LXhyeezkGCzWrWl0Qs4suGGedLGXa3ay1vwuonE7qyEiwkIz4cELQFh/sHsVFp0uYO5aRvDYhTEQJgmTlEF6HtYZh+MFta/giW6hJLbE5befDfer9rL2eWWMXTneubj8zmNlfe6WVhKX9xf8Pcs66xTL+3tRgueVV14x99xzj3nhhReyuIgcT0CY3n333UYY8zkeAsMXgKUFT65+Fxc/w5MRFh3dIpNqnL898T6/8WpZ0S2qSGQMa0e71Xq7KtiBkMRRXZncu65nskjUcL9qKWjP0ePsqvxLRa4VKoFAbbUx8MtK3GzDB/kTtnnB48qI/EN/PRV9sRjmJ/h7S6clfdKSqhGtflWM4Hn55ZfNQw89ZN59992GsUTsh8B7771nHn74YSOs+RwHAR2o/a0NJ+ALs9FFoCrATtrRRNwsOZrYd0wwzW93ybc4X3w64afnPmE2MHgByLW7R5w+CC1JndjJLZzSxuAWRcQzbL9L56tNF+JkB6H/Dk+NqE9/1qnr0HC/qvMeMjTFLusjVb/EAiRvceRTQV84/9/at5aH5UTjwhcZ9rePFPVq8/u+b5yHaZvhyLbm5SgmZ1ffuHPz9yIEj+w6yELMZx4CIizZ6ZmH9dRahi8AleCRnzBnHii2E2G0QDctjCbLUYInEAOhMGgN50RFbNccC4Btt32/T8Ww79++CkxN+cbnzXKlXX5RtYtuhl1rf7nydj3/FJjng8P9ymc9aGC0XeKnGf/ybHdZHQgem9SWF++2RePCl5eI34wNTbvwd4tvAX8vQvDIbSx2dvwIOnhAWAtzPuUTGL4AVItg9sV8+XfvpBSiib1lIQkn8d6LSlRRsvsRXWueDBY8vRae+GHp9O9oWQ5DyrETeLKYJXGxANLbWFWedNEVDJHg1L4NRVG8KDfJ5WOG+1W+nDGx8id42n7ZOsQu6xPaP/VWSmRSax9q+tC/vbB0nDWJFhiNC43sfcTfLapwPCzg74sLHnmYlmd2eo+avSUU5jzIvDecBytoyAJgjchNIoF1jQU3uKbBaGKPFlxNUR+jHYo6OhuKFihZqNIVJZvLRQ4WPD3KjtrZUXffS3kWbvH0otAusLFIkXw9zO1rRq90g/2qV6n9EolY1j/NkwqfJe3qZ33/VPh7JdiTd0st6e+LCh75ubT8dJrPMgTkl3D8ZH0Z9n1rPaUFoG+bSXd4Akv6Vbg7mAqfJe06PHVqWIqA+tWigkfesyM/PeezDIFnn33WPPPMM8tUTq29COhA7ZWYRBDoSUD86umnn84+9xIKkrnCInzuu+++Yn891hMryQoloPPoooJHXioo79nhswyB1157zb7vaJnaqbUPAR2ofdKSBgJ9CSzpV6GIYoenb4+RbgoB9fdFBY+8DZiXCk7pxml533nnHSN/N4lPuQR0oJZrIZYdI4El/UoETyp0lOGSdqkNHE+PgPrVooJH/gQCn2UJ0AfL8t9Vuw7UXem4DoEhBJb0q339SmtIe0l73gTU3xcVPGrEqXbFvn8FcghOp94Hh2A2Z5n0z5y0z6euUv2qVLvOxzNOs6XqVwge7d/w/QAa549tb9P0CbIBBE8WC5EDCOhAHZDlSJLm33Uixud/3u2alb4rJ9/Y5GVw/v0q+dQ2dsfP79OcbTa2xaf5lz4v1a9KtWtof80+9zfWr/C9P7vXL2tvY5zszjeUy1Lp1a8QPFUPyETV/l6Q9o63jqIvvxp49O/mWMoLCv6bOgsiKapqHaglGdXf55OX8EV/fToUPG3hTKuj99i4fOFDsC4cv+cmU0omyi0Q7XNAmMWlzb07B8ETchoent/fq37f89w9RPD0H0/BW7kTtM36gjXr8tJc2nHT9r4nN44a69HlpbmQvy3W8hJTa0JVbnMMhi/HjMONepK2HOJU/QrBI3SjSVT/hk7cSdkOzc14QW81nTC4WEhQHaEQczAjIXCM/eMn8Nz48C9GVJGjx6rh/noCIjjt+nJi6258Uw0yW9HVY2wnC2DUFJkvpA5ra7+ylpjkw1an4VL9an672sVryix7PsAHdA2JfMm+bHvd6w/jtovpXBsCwaOGt40tG59+OdFMbse19YuAjoUqeTr+0jWwvQ11fYcIqV8heKo/6tY9IWWcp0evpJ3dI8vsSdQRZq+YCnsROKr+8d/22ifPutGJ0Kku2DGTiA27UISrRNvE3WvxGDeWa7t33XJr/xYelrF0uFS/mt+unFhI/6RHR2+1+GJ+7s/X1erzmXGQW6ds/obI7+/nPr9ty0AB78d8v3wylnNt6CC8l0vqV2cveHxnW6zOIZsdsst5XD5V8LuPY7bc99LvjULUERoXiCiCQFn9oyKl8vdwktWJrxImOq7slniVzsZlJnEdL5sLV26sbdatt5p3lafl2qMvtGUs5xauagHwWa1HNG0MHWWpb7ChDX3CZflVbfH8duX7U/33sjYtH8r5jQrv2HFERZnNqnlbqW9ded9yZdo1S8dgxxjTMVGb5sZ0c83LN7dvbN7Wvrn3n0796swFj+tsdYJ6YszEN5woFC3idM1vtdaRa89yvdgyQPbfxf1KVEfol5pUcxMoq39U8FQUKkFgt7tlshVho5Nu5ff5yfzSbDcbs1m7b4U62dq0yTfAcOKUsI7VdFhpv+Tr06ty1LGaLj7pud7aDse5xgWLlra3MT/stjW0au5wWX5Vt35+u7Tf+8z5rk8j32uZz7Nzf5fg6fAf9Xk56lhRYjom0vjYz5trk+Z3j3ME5dr2tKV3rHxdPXw/tD0M+zK8IYcNqF+dueCpIVvHiTy5vrY7JI7QdJKs07cMkN11HCaFOsJhSqfUqQTK6p9E8ISNU8ETxuk33WAnyIkaGStaljuutxdmu17ZF2HWzwtomrDQXFx9vb/gSZ9NUDvq7/TNOcGzLU0EAAAIV0lEQVRN+DJx+6mipd3Oom5ba6vnD5XlV3X757dLBU9tg4Syc3f1+IPve5fQrJM/jtmeP19XXPOAMys4NmazCQSLZvfrTH5tcsmcf8ZCqjkOtEgnjprrnL8eBGTszC1qguobQfUrBI+gudhM7Jy8U2UHjXfERp8sEqGOsEjlVLqTQFn9k1nA9Rvh1u3wbGUXJhU41Xk8CYZlyfipdlKqSfxCyGjZtQaRSCuM6kXHLSLht8c0XKeVQoOxGtali5y33ZUb5nXjeRPflrBl1Ls5ad1yHpaxs8NnSlCWX9WNnt+uZj9bL8ku2KnvqY9293/qE84fXFnptd7n6635340TH/G4qliKX1pfDvy9xmxD1p9XTcFk4/04qDM1vwAEdfXcoaq/zNTlzhFSv0Lw2Ek1dlhRps4Z4vjIGSOHcIMmut7pAPE2+Rwd3laHOkLbdeKXJVBW/wQTvl/oq298foKtdk6q7ffs5FmNubwQCBagoMy6FwIbbGSQvk5UhdK0ukBV4y8VVLZNGeFVlXaxkWtJfVkb1ZBM/Xpp4WNZflXDmN8u6c9018L1W3OHIpdWbL80l5Eob3uwPfEd2+xmmXbM5AdHDSoI5QRPXUazfM2q77Rq5E/HhbezRbx3jgGtrW3XrL5+yJD61dkLHhU2qXPXDtPsBnutIXjiQWPVcCV6orKtMyF4mlSJyRHQgZq7Nn9ctYBvNs13c6STXiVq7JeAaqyEY6Lx5SAYTzbdZutucW2TlaRlhye/PmQERzT+koUtmOidDXafKcGcLFpWJHV8MWKHJ+HXfTq7vwd97i3LxdmLefHQXA8yfucLTwPOnxrjofL/RnzLczzRGhONkbzNoRXi67n8UZz185Z1q8cY8O3ID9TQnIOE1a/OXvC00R0meMJS6klUy9BjmKqUsDpCKfZgR0ygrP7pmMhTwVM1I10M7LnevqrSNCZcu+CIiMhNsKkNiQCJ8KVp3e3r8JZbLGy0LD1Gham1zVtagViLc2TqjxMsdlaWX9UYZrcr47exT9S2RbdDw2jrVsGt3FbBlGSyp01BUq8X6bW8PzXGTyRO0jLSZ9fyu1HpuG3UETYlwzC8rOG6XRoz31H9CsFTMXcTcfVNbXPR8tCaS5w6g+8262j1Tk/Uwck1n2fhgDrCwmZQfQuBsvonnXCdMNBvb9E3wqo98Vhx+SW9po2v+0xmbXdH+wsetSF3DL9URmNSn9tJhVW0YKQd49rsy7Rp2eFJKY09n9vfU3Fjz1N/0MZYIZPzSZfA5a18oVUEa2F6jMeQ9191MPGvqqzUd30J0Q6NG2M6vnIiLRUv6bktNxJtTdGkddtjjzHQaFdUwOFP1K/OXPA0J2BFb52r6zmc0KH1G2kYp5OpOq4tWOtrHzRa/1xHdYS56qOeYQTK6h/nv5FL72hOVtDo2MiJmmosyYRtF5BkTPlFxRuRCJDIntTe9DxK7E9sHb58H10FkvqCBSlN2XzAupliqZiy/KqmMKtdjUW9bVfR2dfmy7X19fNrnX+OIcwQPkRfxafCpl6L8utGKFhc2jBdKlaaYyDMH5nWYk8jTecYqFOn7aqvHD6kfnXmgqcddFfn2GvVROwm4NDB6jJby1CB1Dqp1mUcOqSOcOh6KH8cgbL6x02W/tta1xeC8FooWtT3/S6PExD2G2n1TbH+dqr1ufFVjzWXR7/59ibrJ2Ytt3tnJmxnbZMKnsqGsJ1d4ZBBb4MPl7Asv6rbOadd9UJf9WU6Hwe+qr6QJlHLnW8Gt7UqX9Z8tf9ojvqdTpqmeVyb7cW22u10vporx7ejqjO10dum/pn4oua365Wm2XVc/4/5n+o9Wk27e4yrxIaaymFC6leLCp7r168fpnWFlNoqeAqxT8w49T4oCPUoU3SgjspcQKbml4P8Lz3cZFvfDg5NtxP2emv+33ZjwmeYGxN51yS9+VHyc/awhiFhFTxD8pSXtlS/KtWuXA+GAiEnROo8GYGdqpI6cfU4hXtoP32OzdcZ5HeCxb3HKogOSuwOquDpTnXcV9WvFhU8V69eNbdv3z5ukkds/TvvvGNf9HbETTh503WgnnxDaeCsBEr1q1LtmrVzqGzvBNSvFhU8jz76qHn99df33jgK7EfgtddeM1/60pf6JSbVIgR0oC5SOZWeLIFS/apUu07WEc6kYepXiwqemzdvmlu3bp0J8vKa+b3vfc985zvfKc8wLPIEdKD6CAIQ2AOBUv2qVLv2gJwiFiSgfrWo4Hn11VfNY489tiCG865adtikD/iUS0AHarkWYtkxEijVr0q16xj7GJtrAupXiwoeMeepp54yL7zwQm0ZoVkICHNhz6dsAjpQy7YS646NQKl+Vapdx9a/2BsTUL9aXPCIWXfffbd57733Ygs5OxgBYS3M+ZRPQAdq+ZZi4TERKNWvSrXrmPoWW5sE1K+KEDyvvPKKeeihh5pWEnMQAg8//LAR5nzKJ6ADtXxLsfCYCJTqV6XadUx9i61NAupXRQgeMe/ll182shC/++67TWuJ2QsB2dkRYSms+RwHAR2ox2EtVh4LgVL9qlS7jqVfsTNPQP2qGMEjZsquwz333MMzPfk+mxQrz+zIbSx2diZhnD2zDtTZK6bCkyZQql+VatdJO8MZNE79qijBo9zlYVr5BdGzzz5r5F0x8oI8PsMICDNhJz89F5Y8oDyMXympdaCWYg92nAaBUv2qVLtOo9fPtxXqV0UKHukW+bn0M888Y1+Mt16v7Z9AEKP5t5uB/LkIYSYvFZT37PDT8+Md6DpQj7cFWF4igVL9qlS7SuxDbOpPQP2qWMHTvymkhMDpEhDxKoOVfzDYpw+U+jf08Hf8fJ9+rmWpv/9/rJRQZ8S2fcQAAAAASUVORK5CYII=;" vertex="1" parent="1">
          <mxGeometry x="140" y="120" width="572" height="458" as="geometry" />
        </mxCell>
      </root>
    </mxGraphModel>
  </diagram>
</mxfile>
